#Comment line ignore any data following # character 
#Hierarchical Translation and Rotation (.htr) file 
[Header]	
#Header keywords are followed by a single value 
FileType HTR		#Single word string
DataType HTRS		#Translation followed by rotation and scale data
FileVersion 1		#integer
NumSegments 25		#integer
NumFrames 6		#integer
DataFrameRate 30		#integer, data frame rate in this file
EulerRotationOrder ZYX
CalibrationUnits mm
RotationUnits Degrees
GlobalAxisofGravity Y
BoneLengthAxis Y
ScaleFactor 1.00
[SegmentNames&Hierarchy]
#CHILD	PARENT
BN_Tick_Root GLOBAL
BN_Torso BN_Tick_Root
BN_L_Leg_Front01 BN_Torso
BN_L_Leg_Rear01 BN_Torso
BN_MetalTop BN_Torso
BN_Neck BN_Torso
BN_R_Leg_Front01 BN_Torso
BN_R_Leg_Rear01 BN_Torso
BN_Sack BN_Torso
BN_L_Leg_Front02 BN_L_Leg_Front01
BN_L_Leg_Front03 BN_L_Leg_Front02
BN_L_Leg_Rear02 BN_L_Leg_Rear01
BN_L_Leg_Rear03 BN_L_Leg_Rear02
BN_Head BN_Neck
BN_Needle BN_Head
BN_R_Leg_Front02 BN_R_Leg_Front01
BN_R_Leg_Front03 BN_R_Leg_Front02
BN_R_Leg_Rear02 BN_R_Leg_Rear01
BN_R_Leg_Rear03 BN_R_Leg_Rear02
BN_SackDef01 BN_Sack
BN_SackDef02 BN_Sack
BN_SackDef03 BN_Sack
BN_SackDef04 BN_Sack
BN_SackDef05 BN_Sack
BN_SackDef06 BN_Sack
[BasePosition]
#SegmentName Tx, Ty, Tz, Rx, Ry, Rz, BoneLength
BN_Tick_Root 0.000000 0.000000 0.000000 -90.000000 0.000000 0.000000 10.000000 
BN_Torso 0.000000 0.000000 0.000000 0.000000 0.000000 0.000000 10.000000 
BN_L_Leg_Front01 0.000000 0.000000 0.000000 0.000000 0.000000 0.000000 10.000000 
BN_L_Leg_Rear01 0.000000 0.000000 0.000000 0.000000 0.000000 0.000000 10.000000 
BN_MetalTop 0.000000 0.000000 0.000000 0.000000 0.000000 0.000000 10.000000 
BN_Neck 0.000000 0.000000 0.000000 0.000000 0.000000 0.000000 10.000000 
BN_R_Leg_Front01 0.000000 0.000000 0.000000 0.000000 0.000000 0.000000 10.000000 
BN_R_Leg_Rear01 0.000000 0.000000 0.000000 0.000000 0.000000 0.000000 10.000000 
BN_Sack 0.000000 0.000000 0.000000 0.000000 0.000000 0.000000 10.000000 
BN_L_Leg_Front02 0.000000 0.000000 0.000000 0.000000 0.000000 0.000000 10.000000 
BN_L_Leg_Front03 0.000000 0.000000 0.000000 0.000000 0.000000 0.000000 10.000000 
BN_L_Leg_Rear02 0.000000 0.000000 0.000000 0.000000 0.000000 0.000000 10.000000 
BN_L_Leg_Rear03 0.000000 0.000000 0.000000 0.000000 0.000000 0.000000 10.000000 
BN_Head 0.000000 0.000000 0.000000 0.000000 0.000000 0.000000 10.000000 
BN_Needle 0.000000 0.000000 0.000000 0.000000 0.000000 0.000000 10.000000 
BN_R_Leg_Front02 0.000000 0.000000 0.000000 0.000000 0.000000 0.000000 10.000000 
BN_R_Leg_Front03 0.000000 0.000000 0.000000 0.000000 0.000000 0.000000 10.000000 
BN_R_Leg_Rear02 0.000000 0.000000 0.000000 0.000000 0.000000 0.000000 10.000000 
BN_R_Leg_Rear03 0.000000 0.000000 0.000000 0.000000 0.000000 0.000000 10.000000 
BN_SackDef01 0.000000 0.000000 0.000000 0.000000 0.000000 0.000000 10.000000 
BN_SackDef02 0.000000 0.000000 0.000000 0.000000 0.000000 0.000000 10.000000 
BN_SackDef03 0.000000 0.000000 0.000000 0.000000 0.000000 0.000000 10.000000 
BN_SackDef04 0.000000 0.000000 0.000000 0.000000 0.000000 0.000000 10.000000 
BN_SackDef05 0.000000 0.000000 0.000000 0.000000 0.000000 0.000000 10.000000 
BN_SackDef06 0.000000 0.000000 0.000000 0.000000 0.000000 0.000000 10.000000 
#Beginning of Data. Separated by tabs
#Fr	Tx	Ty	Tz	Rx	Ry	Rz	SF
[BN_Tick_Root]
1 0.000000 0.000000 0.000000 0.000000 0.000000 -0.000020 0.000000
2 0.000000 0.000000 0.000000 0.000000 0.000000 -0.000020 0.000000
3 0.000000 0.000000 0.000000 0.000000 0.000000 -0.000020 0.000000
4 0.000000 0.000000 0.000000 0.000000 0.000000 -0.000020 0.000000
5 0.000000 0.000000 0.000000 0.000000 0.000000 -0.000020 0.000000
6 0.000000 0.000000 0.000000 0.000000 0.000000 -0.000020 0.000000
[BN_Torso]
1 10.022041 31.810827 206.720535 -21.345894 -3.389756 4.886087 209.393768
2 10.022041 31.810827 208.303467 -20.895222 -2.772631 5.459720 210.956650
3 10.022041 31.810827 209.886398 -20.438591 -2.160059 6.037926 212.519821
4 10.022041 31.810827 211.469330 -18.947559 -1.852316 5.402932 214.083282
5 10.022041 31.810827 213.052277 -17.460260 -1.528185 4.776263 215.647034
6 10.022041 31.810827 214.635208 -15.970588 -1.215922 4.143582 217.211060
[BN_L_Leg_Front01]
1 -68.477791 10.734189 -26.804373 -67.311951 33.320770 130.823746 74.316254
2 -68.477791 10.734189 -26.804373 -67.202385 34.240997 129.939423 74.316254
3 -68.477791 10.734189 -26.804373 -67.108963 35.162533 129.047318 74.316254
4 -68.477791 10.734189 -26.804373 -66.444153 36.649849 129.991745 74.316254
5 -68.477791 10.734189 -26.804373 -65.734818 38.128208 130.977127 74.316254
6 -68.477791 10.734189 -26.804373 -64.977928 39.596100 132.006561 74.316254
[BN_L_Leg_Rear01]
1 -72.133743 -73.994843 -18.268616 23.429167 60.443165 -171.812225 104.939293
2 -72.133743 -73.994843 -18.268616 24.185526 60.811279 -172.231430 104.939293
3 -72.133743 -73.994843 -18.268616 24.945137 61.182095 -172.645432 104.939293
4 -72.133743 -73.994843 -18.268616 28.145567 61.514557 -169.112183 104.939293
5 -72.133743 -73.994843 -18.268616 31.413424 61.750977 -165.511871 104.939293
6 -72.133743 -73.994843 -18.268616 34.725445 61.888714 -161.867706 104.939293
[BN_MetalTop]
1 0.000008 13.737477 26.403606 92.251366 -17.585709 -97.417938 29.763546
2 0.000008 13.737477 26.403606 92.251366 -17.585709 -97.417938 29.763546
3 0.000008 13.737477 26.403606 92.251366 -17.585709 -97.417938 29.763546
4 0.000008 13.737477 26.403606 92.251366 -17.585709 -97.417938 29.763546
5 0.000008 13.737477 26.403606 92.251373 -17.585711 -97.417953 29.763546
6 0.000008 13.737477 26.403606 92.251366 -17.585709 -97.417938 29.763546
[BN_Neck]
1 0.000014 95.233284 10.002091 -89.999672 -65.297531 89.999657 95.757088
2 0.000014 95.233284 10.002091 -89.999672 -65.297531 89.999657 95.757088
3 0.000014 95.233284 10.002091 -89.999672 -65.297531 89.999657 95.757088
4 0.000014 95.233284 10.002091 -89.999672 -65.297531 89.999657 95.757088
5 0.000014 95.233284 10.002091 -89.999672 -65.297531 89.999657 95.757088
6 0.000014 95.233284 10.002091 -89.999672 -65.297531 89.999657 95.757088
[BN_R_Leg_Front01]
1 68.477768 10.734107 -26.804314 75.747475 43.678497 52.725151 74.316193
2 68.477768 10.734107 -26.804314 75.035690 44.075737 51.305828 74.316193
3 68.477768 10.734107 -26.804314 74.305573 44.460075 49.870232 74.316193
4 68.477768 10.734107 -26.804314 72.445084 45.434021 49.078018 74.316193
5 68.477768 10.734107 -26.804314 70.532219 46.389217 48.226307 74.316193
6 68.477768 10.734107 -26.804314 68.565071 47.323555 47.313118 74.316193
[BN_R_Leg_Rear01]
1 72.133751 -73.994873 -18.268644 24.175869 76.398041 35.262505 104.939331
2 72.133751 -73.994873 -18.268644 21.939381 76.504532 31.906160 104.939331
3 72.133751 -73.994873 -18.268644 19.664982 76.579903 28.512098 104.939331
4 72.133751 -73.994873 -18.268644 12.726167 76.631538 22.696577 104.939331
5 72.133751 -73.994873 -18.268644 5.813732 76.520187 16.907797 104.939331
6 72.133751 -73.994873 -18.268644 -0.921017 76.249954 11.296857 104.939331
[BN_Sack]
1 -0.000000 -78.024918 33.657791 91.379875 -11.014523 -97.199577 84.974907
2 -0.000000 -78.024918 33.657791 91.379875 -11.014524 -97.199577 84.974907
3 -0.000000 -78.024918 33.657791 91.379875 -11.014523 -97.199577 84.974907
4 -0.000000 -78.024918 33.657791 91.379875 -11.014524 -97.199577 84.974907
5 -0.000000 -78.024918 33.657791 91.379875 -11.014523 -97.199577 84.974907
6 -0.000000 -78.024918 33.657791 91.379875 -11.014523 -97.199577 84.974907
[BN_L_Leg_Front02]
1 142.805023 -0.000015 -0.000104 0.117850 0.511812 -113.671814 142.805023
2 142.805023 -0.000015 -0.000104 0.120439 0.505573 -112.942078 142.805023
3 142.805023 -0.000015 -0.000104 0.122948 0.499302 -112.212326 142.805023
4 142.805023 -0.000015 -0.000104 0.103882 0.543732 -116.857254 142.805023
5 142.805023 -0.000015 -0.000104 0.076315 0.600998 -121.751869 142.805023
6 142.805023 -0.000015 -0.000104 0.046554 0.654719 -126.980774 142.805023
[BN_L_Leg_Front03]
1 124.143021 -0.000045 0.000007 0.351551 -0.378535 122.307297 124.143021
2 124.143021 -0.000045 0.000007 0.351863 -0.383204 121.636002 124.143021
3 124.143021 -0.000045 0.000007 0.352229 -0.387869 120.964699 124.143021
4 124.143021 -0.000045 0.000007 0.351202 -0.368197 125.110123 124.143021
5 124.143021 -0.000045 0.000007 0.351601 -0.348477 129.260971 124.143021
6 124.143021 -0.000045 0.000007 0.353424 -0.328863 133.406387 124.143021
[BN_L_Leg_Rear02]
1 139.939041 0.000075 -0.000022 0.086134 -0.238421 95.154358 139.939041
2 139.939041 0.000075 -0.000022 0.085478 -0.232793 94.734230 139.939041
3 139.939041 0.000075 -0.000022 0.084781 -0.227169 94.314087 139.939041
4 139.939041 0.000075 -0.000022 0.084781 -0.227169 94.314087 139.939041
5 139.939041 0.000075 -0.000022 0.084781 -0.227169 94.314087 139.939041
6 139.939041 0.000075 -0.000022 0.084781 -0.227169 94.314087 139.939041
[BN_L_Leg_Rear03]
1 142.839615 0.000179 -0.000060 0.000485 -0.002297 -113.856178 142.839615
2 142.839615 0.000179 -0.000060 0.000476 -0.002299 -113.379791 142.839615
3 142.839615 0.000179 -0.000060 0.000466 -0.002300 -112.903381 142.839615
4 142.839615 0.000179 -0.000060 0.000466 -0.002300 -112.903381 142.839615
5 142.839615 0.000179 -0.000060 0.000466 -0.002300 -112.903381 142.839615
6 142.839615 0.000179 -0.000060 0.000466 -0.002300 -112.903404 142.839615
[BN_Head]
1 57.062447 -0.000030 0.000000 -1.237223 8.807455 -10.495423 57.062447
2 57.062447 -0.000030 0.000000 -2.070678 8.636485 -10.140925 57.062447
3 57.062447 -0.000030 0.000000 -2.904818 8.470628 -9.784105 57.062447
4 57.062447 -0.000030 0.000000 -2.562617 7.853792 -8.266743 57.062447
5 57.062447 -0.000030 0.000000 -2.237490 7.228219 -6.755298 57.062447
6 57.062447 -0.000030 0.000000 2.411781 2.383226 -3.337936 57.062447
[BN_Needle]
1 33.915161 69.677544 -0.000060 0.000003 0.000030 87.896805 77.493217
2 33.915161 69.677544 -0.000060 0.000003 0.000030 87.896805 77.493217
3 33.915161 69.677544 -0.000060 0.000003 0.000030 87.896805 77.493217
4 33.915161 69.677544 -0.000060 0.000003 0.000030 87.896805 77.493217
5 33.915161 69.677544 -0.000060 0.000003 0.000030 87.896805 77.493217
6 33.915161 69.677544 -0.000060 0.000003 0.000030 87.896805 77.493217
[BN_R_Leg_Front02]
1 142.804947 -0.000060 0.000060 -0.067904 0.618960 123.310448 142.804947
2 142.804947 -0.000060 0.000060 -0.068602 0.618884 123.181122 142.804947
3 142.804947 -0.000060 0.000060 -0.069301 0.618806 123.051788 142.804947
4 142.804947 -0.000060 0.000060 -0.072519 0.612588 122.551132 142.804947
5 142.804947 -0.000060 0.000060 -0.075684 0.606342 122.050468 142.804947
6 142.804947 -0.000060 0.000060 -0.078793 0.600068 121.549805 142.804947
[BN_R_Leg_Front03]
1 124.143005 -0.000060 -0.000156 -0.351199 -0.341044 -130.556641 124.143005
2 124.143005 -0.000060 -0.000156 -0.351507 -0.340726 -130.453140 124.143005
3 124.143005 -0.000060 -0.000156 -0.351815 -0.340409 -130.349655 124.143005
4 124.143005 -0.000060 -0.000156 -0.352926 -0.342851 -129.943558 124.143005
5 124.143005 -0.000060 -0.000156 -0.354053 -0.345285 -129.537476 124.143005
6 124.143005 -0.000060 -0.000156 -0.355199 -0.347711 -129.131409 124.143005
[BN_R_Leg_Rear02]
1 139.939011 -0.000149 0.000015 0.004700 -0.254992 -120.691574 139.939011
2 139.939011 -0.000149 0.000015 0.003227 -0.257144 -120.580528 139.939011
3 139.939011 -0.000149 0.000015 0.001750 -0.259293 -120.469482 139.939011
4 139.939011 -0.000149 0.000015 0.003791 -0.254173 -120.927528 139.939011
5 139.939011 -0.000149 0.000015 0.005790 -0.249037 -121.385567 139.939011
6 139.939011 -0.000149 0.000015 0.007748 -0.243885 -121.843597 139.939011
[BN_R_Leg_Rear03]
1 142.839417 0.000075 0.000119 0.002144 -0.000955 138.016159 142.839417
2 142.839417 0.000075 0.000119 0.002145 -0.000953 137.928726 142.839417
3 142.839417 0.000075 0.000119 0.002146 -0.000952 137.841293 142.839417
4 142.839417 0.000075 0.000119 0.002143 -0.000958 138.186981 142.839417
5 142.839417 0.000075 0.000119 0.002140 -0.000965 138.532684 142.839417
6 142.839417 0.000075 0.000119 0.002137 -0.000971 138.878372 142.839417
[BN_SackDef01]
1 249.782272 -3.760844 42.949425 -128.408218 -44.374973 -11.740845 253.475800
2 249.782272 -3.760844 42.949425 -128.408218 -44.374973 -11.740845 253.475800
3 249.782272 -3.760844 42.949425 -128.408218 -44.374973 -11.740845 253.475800
4 249.782272 -3.760844 42.949425 -128.408218 -44.374973 -11.740845 253.475800
5 249.782272 -3.760844 42.949425 -128.408218 -44.374973 -11.740845 253.475800
6 249.782272 -3.760844 42.949425 -128.408218 -44.374973 -11.740845 253.475800
[BN_SackDef02]
1 138.789795 -62.131748 45.674385 32.077126 -27.375721 -88.781525 158.773758
2 138.789795 -62.131748 45.674385 32.077126 -27.375721 -88.781525 158.773758
3 138.789795 -62.131748 45.674385 32.077126 -27.375721 -88.781525 158.773758
4 138.789795 -62.131748 45.674385 32.077126 -27.375721 -88.781525 158.773758
5 138.789795 -62.131748 45.674385 32.077126 -27.375721 -88.781525 158.773758
6 138.789795 -62.131748 45.674385 32.077126 -27.375721 -88.781525 158.773758
[BN_SackDef03]
1 249.782272 -3.760785 -42.949661 18.144459 44.375008 -11.740894 253.475845
2 249.782272 -3.760785 -42.949661 18.144459 44.375008 -11.740894 253.475845
3 249.782272 -3.760785 -42.949661 18.144459 44.375008 -11.740894 253.475845
4 249.782272 -3.760785 -42.949661 18.144459 44.375008 -11.740894 253.475845
5 249.782272 -3.760785 -42.949661 18.144459 44.375008 -11.740894 253.475845
6 249.782272 -3.760785 -42.949661 18.144459 44.375008 -11.740894 253.475845
[BN_SackDef04]
1 138.789780 -62.131645 -45.674473 146.059982 27.375723 -88.781555 158.773743
2 138.789780 -62.131645 -45.674473 146.059982 27.375723 -88.781555 158.773743
3 138.789780 -62.131645 -45.674473 146.059982 27.375723 -88.781555 158.773743
4 138.789780 -62.131645 -45.674473 146.059982 27.375723 -88.781555 158.773743
5 138.789780 -62.131645 -45.674473 146.059982 27.375723 -88.781555 158.773743
6 138.789780 -62.131645 -45.674473 146.059982 27.375723 -88.781555 158.773743
[BN_SackDef05]
1 118.790161 46.167137 -63.831196 0.155741 51.314110 90.605110 142.537460
2 118.790161 46.167137 -63.831196 0.155741 51.314110 90.605110 142.537460
3 118.790161 46.167137 -63.831196 0.155741 51.314110 90.605110 142.537460
4 118.790161 46.167137 -63.831196 0.155741 51.314110 90.605110 142.537460
5 118.790161 46.167137 -63.831196 0.155741 51.314110 90.605110 142.537460
6 118.790161 46.167137 -63.831196 0.155741 51.314110 90.605110 142.537460
[BN_SackDef06]
1 118.790207 46.167194 63.831219 152.058487 -51.314072 90.605019 142.537537
2 118.790207 46.167194 63.831219 152.058487 -51.314072 90.605019 142.537537
3 118.790207 46.167194 63.831219 152.058487 -51.314072 90.605019 142.537537
4 118.790207 46.167194 63.831219 152.058487 -51.314072 90.605019 142.537537
5 118.790207 46.167194 63.831219 152.058487 -51.314072 90.605019 142.537537
6 118.790207 46.167194 63.831219 152.058487 -51.314072 90.605019 142.537537
